<svg xmlns="http://www.w3.org/2000/svg" width="900" height="620" viewBox="0 0 900 620">
<defs><linearGradient id="g" x1="0" x2="1"><stop stop-color="#fff1f7"/><stop offset="1" stop-color="#eef7ff"/></linearGradient><filter id="s"><feDropShadow dx="0" dy="14" stdDeviation="20" flood-opacity=".14"/></filter></defs>
<rect width="900" height="620" rx="44" fill="url(#g)"/><path d="M80 440 C180 310 310 340 410 245 S640 145 790 220" fill="none" stroke="#ec2f7b" stroke-width="9" stroke-linecap="round" opacity=".75"/><path d="M130 170 C230 270 370 260 475 365 S680 475 808 380" fill="none" stroke="#071d49" stroke-width="7" stroke-linecap="round" opacity=".28"/><g filter="url(#s)"><circle cx="450" cy="310" r="86" fill="#ec2f7b"/><circle cx="450" cy="310" r="64" fill="#fff"/><path d="M450 256 l18 35 39 6-28 27 7 39-36-19-35 19 6-39-28-27 39-6z" fill="#ec2f7b"/></g><text x="450" y="492" text-anchor="middle" font-family="Arial, sans-serif" font-size="42" font-weight="800" fill="#071d49">Dallas & Surrounding Areas</text><text x="450" y="542" text-anchor="middle" font-family="Arial, sans-serif" font-size="25" fill="#50617f">Irving • Carrollton • Farmers Branch</text><g fill="#ec2f7b" opacity=".25"><circle cx="178" cy="110" r="18"/><circle cx="755" cy="115" r="28"/><circle cx="132" cy="520" r="22"/><circle cx="792" cy="505" r="16"/></g></svg>